<svg width="22" height="22" viewBox="0 0 22 22" fill="none" xmlns="http://www.w3.org/2000/svg">
<g clip-path="url(#clip0_204_21)">
<rect width="22" height="22" rx="5" fill="white"/>
<path d="M21.9884 11.2058C21.9884 10.3045 21.9135 9.64674 21.7516 8.96466H11.2191V13.0328H17.4014C17.2768 14.0438 16.6037 15.5663 15.108 16.5894L15.087 16.7256L18.4172 19.2466L18.6479 19.2691C20.7668 17.3568 21.9884 14.5432 21.9884 11.2058Z" fill="#3792DE"/>
<path d="M11.2191 21.9244C14.2479 21.9244 16.7906 20.95 18.6479 19.2691L15.108 16.5894C14.1607 17.235 12.8893 17.6857 11.2191 17.6857C8.25261 17.6857 5.73481 15.7734 4.83729 13.1303L4.70573 13.1412L1.24298 15.76L1.19769 15.883C3.04241 19.464 6.8316 21.9244 11.2191 21.9244Z" fill="#34A853"/>
<path d="M4.83731 13.1303C4.60049 12.4482 4.46343 11.7174 4.46343 10.9622C4.46343 10.207 4.60049 9.47621 4.82485 8.79413L4.81858 8.64886L1.31243 5.98804L1.19772 6.04136C0.437419 7.52737 0.00115967 9.19609 0.00115967 10.9622C0.00115967 12.7284 0.437419 14.397 1.19772 15.883L4.83731 13.1303Z" fill="#FBBC05"/>
<path d="M11.2191 4.23869C13.3256 4.23869 14.7465 5.12785 15.5567 5.87089L18.7227 2.85018C16.7783 1.08405 14.2479 0 11.2191 0C6.8316 0 3.04241 2.46039 1.19769 6.04135L4.82483 8.79412C5.73481 6.15102 8.25261 4.23869 11.2191 4.23869Z" fill="#EB4335"/>
</g>
<defs>
<clipPath id="clip0_204_21">
<rect width="22" height="22" rx="5" fill="white"/>
</clipPath>
</defs>
</svg>
