<svg width="100" height="49" viewBox="0 0 100 49" fill="none" xmlns="http://www.w3.org/2000/svg">
<path d="M26.3344 20.75H24.1391V16.5156C24.1391 15.6198 24.0922 15.0417 23.9984 14.7812C23.9047 14.5156 23.751 14.3099 23.5375 14.1641C23.3292 14.0182 23.0766 13.9453 22.7797 13.9453C22.3995 13.9453 22.0583 14.0495 21.7562 14.2578C21.4542 14.4661 21.2458 14.7422 21.1312 15.0859C21.0219 15.4297 20.9672 16.0651 20.9672 16.9922V20.75H18.7719V12.4531H20.8109V13.6719C21.5349 12.7344 22.4464 12.2656 23.5453 12.2656C24.0297 12.2656 24.4724 12.3542 24.8734 12.5312C25.2745 12.7031 25.5766 12.9245 25.7797 13.1953C25.988 13.4661 26.1312 13.7734 26.2094 14.1172C26.2927 14.4609 26.3344 14.9531 26.3344 15.5938V20.75ZM34.0297 20.75V19.5078C33.7276 19.9505 33.3292 20.2995 32.8344 20.5547C32.3448 20.8099 31.8266 20.9375 31.2797 20.9375C30.7224 20.9375 30.2224 20.8151 29.7797 20.5703C29.337 20.3255 29.0167 19.9818 28.8187 19.5391C28.6208 19.0964 28.5219 18.4844 28.5219 17.7031V12.4531H30.7172V16.2656C30.7172 17.4323 30.7562 18.1484 30.8344 18.4141C30.9177 18.6745 31.0661 18.8828 31.2797 19.0391C31.4932 19.1901 31.7641 19.2656 32.0922 19.2656C32.4672 19.2656 32.8031 19.1641 33.1 18.9609C33.3969 18.7526 33.6 18.4974 33.7094 18.1953C33.8187 17.888 33.8734 17.1406 33.8734 15.9531V12.4531H36.0687V20.75H34.0297ZM42.1547 12.4531V14.2031H40.6547V17.5469C40.6547 18.224 40.6677 18.6198 40.6937 18.7344C40.725 18.8438 40.7901 18.9349 40.8891 19.0078C40.9932 19.0807 41.1182 19.1172 41.2641 19.1172C41.4672 19.1172 41.7615 19.0469 42.1469 18.9062L42.3344 20.6094C41.824 20.8281 41.2458 20.9375 40.6 20.9375C40.2042 20.9375 39.8474 20.8724 39.5297 20.7422C39.212 20.6068 38.9776 20.4349 38.8266 20.2266C38.6807 20.013 38.5792 19.7266 38.5219 19.3672C38.475 19.112 38.4516 18.5964 38.4516 17.8203V14.2031H37.4437V12.4531H38.4516V10.8047L40.6547 9.52344V12.4531H42.1547ZM45.7797 20.75H43.5844V12.4531H45.6234V13.6328C45.9724 13.0755 46.2849 12.7083 46.5609 12.5312C46.8422 12.3542 47.1599 12.2656 47.5141 12.2656C48.0141 12.2656 48.4958 12.4036 48.9594 12.6797L48.2797 14.5938C47.9099 14.3542 47.5661 14.2344 47.2484 14.2344C46.9411 14.2344 46.6807 14.3203 46.4672 14.4922C46.2536 14.6589 46.0844 14.9635 45.9594 15.4062C45.8396 15.849 45.7797 16.776 45.7797 18.1875V20.75ZM49.9125 11.3281V9.29688H52.1078V11.3281H49.9125ZM49.9125 20.75V12.4531H52.1078V20.75H49.9125ZM58.1703 12.4531V14.2031H56.6703V17.5469C56.6703 18.224 56.6833 18.6198 56.7094 18.7344C56.7406 18.8438 56.8057 18.9349 56.9047 19.0078C57.0089 19.0807 57.1339 19.1172 57.2797 19.1172C57.4828 19.1172 57.7771 19.0469 58.1625 18.9062L58.35 20.6094C57.8396 20.8281 57.2615 20.9375 56.6156 20.9375C56.2198 20.9375 55.863 20.8724 55.5453 20.7422C55.2276 20.6068 54.9932 20.4349 54.8422 20.2266C54.6964 20.013 54.5948 19.7266 54.5375 19.3672C54.4906 19.112 54.4672 18.5964 54.4672 17.8203V14.2031H53.4594V12.4531H54.4672V10.8047L56.6703 9.52344V12.4531H58.1703ZM59.6937 11.3281V9.29688H61.8891V11.3281H59.6937ZM59.6937 20.75V12.4531H61.8891V20.75H59.6937ZM63.6391 16.4844C63.6391 15.7552 63.8187 15.0495 64.1781 14.3672C64.5375 13.6849 65.0453 13.1641 65.7016 12.8047C66.363 12.4453 67.1 12.2656 67.9125 12.2656C69.1677 12.2656 70.1964 12.6745 70.9984 13.4922C71.8005 14.3047 72.2016 15.3333 72.2016 16.5781C72.2016 17.8333 71.7953 18.875 70.9828 19.7031C70.1755 20.526 69.1573 20.9375 67.9281 20.9375C67.1677 20.9375 66.4411 20.7656 65.7484 20.4219C65.0609 20.0781 64.5375 19.5755 64.1781 18.9141C63.8187 18.2474 63.6391 17.4375 63.6391 16.4844ZM65.8891 16.6016C65.8891 17.4245 66.0844 18.0547 66.475 18.4922C66.8656 18.9297 67.3474 19.1484 67.9203 19.1484C68.4932 19.1484 68.9724 18.9297 69.3578 18.4922C69.7484 18.0547 69.9437 17.4193 69.9437 16.5859C69.9437 15.7734 69.7484 15.1484 69.3578 14.7109C68.9724 14.2734 68.4932 14.0547 67.9203 14.0547C67.3474 14.0547 66.8656 14.2734 66.475 14.7109C66.0844 15.1484 65.8891 15.7786 65.8891 16.6016ZM81.475 20.75H79.2797V16.5156C79.2797 15.6198 79.2328 15.0417 79.1391 14.7812C79.0453 14.5156 78.8917 14.3099 78.6781 14.1641C78.4698 14.0182 78.2172 13.9453 77.9203 13.9453C77.5401 13.9453 77.199 14.0495 76.8969 14.2578C76.5948 14.4661 76.3865 14.7422 76.2719 15.0859C76.1625 15.4297 76.1078 16.0651 76.1078 16.9922V20.75H73.9125V12.4531H75.9516V13.6719C76.6755 12.7344 77.587 12.2656 78.6859 12.2656C79.1703 12.2656 79.613 12.3542 80.0141 12.5312C80.4151 12.7031 80.7172 12.9245 80.9203 13.1953C81.1286 13.4661 81.2719 13.7734 81.35 14.1172C81.4333 14.4609 81.475 14.9531 81.475 15.5938V20.75Z" fill="#002554"/>
<g clip-path="url(#clip0_1_673)">
<path d="M51.0573 42.4108V28.8507C51.0573 28.6217 50.9018 28.422 50.6798 28.3659L49.3104 28.0198C49.0427 27.9522 48.7708 28.1144 48.7031 28.3821C48.6925 28.4241 48.6874 28.4672 48.6879 28.5105L48.8531 42.3877L45.0476 39.8791C44.8344 39.6864 44.488 39.6864 44.2748 39.8791L43.5021 40.5801C43.289 40.7728 43.289 41.0875 43.5021 41.2791L49.8703 47.182C50.0834 47.3747 50.4299 47.3747 50.643 47.182L56.4434 41.2802C56.6565 41.0875 56.6565 40.7739 56.4434 40.5791L55.6706 39.8791C55.4575 39.6864 55.111 39.6864 54.8979 39.8791L51.0573 42.4108Z" fill="#002554"/>
</g>
<defs>
<clipPath id="clip0_1_673">
<rect width="16" height="21" fill="white" transform="translate(42 27.25)"/>
</clipPath>
</defs>
</svg>
