<svg width="21" height="18" viewBox="0 0 21 18" fill="none" xmlns="http://www.w3.org/2000/svg">
<path d="M20.5 2.80998C19.7483 3.13607 18.9534 3.35164 18.14 3.44998C18.9982 2.9373 19.6413 2.13076 19.95 1.17998C19.1436 1.66004 18.2608 1.99827 17.34 2.17998C16.7245 1.51255 15.905 1.06827 15.0098 0.916827C14.1147 0.765382 13.1945 0.915334 12.3938 1.34316C11.593 1.771 10.9569 2.45251 10.5852 3.28081C10.2135 4.10912 10.1273 5.03736 10.34 5.91997C8.70943 5.8375 7.11444 5.41293 5.65865 4.67384C4.20287 3.93475 2.91885 2.89767 1.89 1.62998C1.52914 2.26014 1.33952 2.9738 1.34 3.69998C1.33872 4.37436 1.50422 5.03859 1.82176 5.63354C2.13929 6.22849 2.59902 6.73569 3.16 7.10998C2.50798 7.09223 1.86989 6.91727 1.3 6.59998V6.64998C1.30489 7.59487 1.63599 8.50907 2.23731 9.23794C2.83864 9.96681 3.67326 10.4656 4.6 10.65C4.24326 10.7585 3.87287 10.8158 3.5 10.82C3.24189 10.817 2.98442 10.7936 2.73 10.75C2.99391 11.5628 3.50462 12.2731 4.19107 12.7821C4.87753 13.2911 5.70558 13.5735 6.56 13.59C5.1172 14.7252 3.33588 15.3448 1.5 15.35C1.16574 15.3511 0.831736 15.331 0.5 15.29C2.37443 16.5002 4.55881 17.1427 6.79 17.14C8.32969 17.156 9.85714 16.865 11.2831 16.2841C12.7091 15.7031 14.005 14.8439 15.0952 13.7565C16.1854 12.6691 17.048 11.3754 17.6326 9.95088C18.2172 8.5264 18.512 6.9997 18.5 5.45997C18.5 5.28997 18.5 5.10997 18.5 4.92998C19.2847 4.34479 19.9615 3.6274 20.5 2.80998Z" fill="#4EA9DC"/>
</svg>
